<?xml version="1.0" encoding="UTF-8"?>
<svg id="Layer_2" data-name="Layer 2" xmlns="http://www.w3.org/2000/svg" viewBox="0 0 497.07 415.75">
  <defs>
    <style>
      .cls-1 {
        fill: #141414;
      }
    </style>
  </defs>
  <g id="Layer_1-2" data-name="Layer 1">
    <path class="cls-1" d="M149.73,189.97c-4.25-4.26-20.83-8.69-26.81-8.11-3.26.32-8.97,2.94-11.43,5.13-16.61,14.74-18.59,76.43-17.35,98,.36,6.36,4.98,25.15,1.53,29.38-2.94,3.61-6.29-3-7.64-5.31-15.95-27.28-14.89-70.34-12.8-100.96,1.24-18.16,11.21-40.15-10.31-49.59-46.11-20.22-41.2,56.12-44.63,81.47-1.56,10.43,4.48,27.54,2.97,36.92-.51,3.17-4.07,7.82-6.41,4.53-6.12-19.42-11.3-39.35-14.32-59.53-13.63-91.01,28.4-130.05,117.12-97.16,14.53,5.39,27.73,13.13,41.72,19.16,12.95,5.58,37.02,15.89,45.1-2.16,8.14-18.2-13.89-35.2-19.95-50.93-21.2-55.01,32.67-106.08,86.56-86.56,35.99,13.04,51.79,56.16,35.06,90.44-6.91,14.17-24.12,26.2-18.4,44.6,6.02,19.35,28.6,11.1,41.65,5.6,39.1-16.48,101.87-53.16,142.06-19.65,40.53,33.8,19.45,112.8,6.03,155.76-2.37,1.15-4.22.55-5.3-1.79-2.54-5.48,2.13-24.66,2.29-32.15s-.51-18.1-1.05-25.98c-1.06-15.52-3.64-50.01-14.93-60.93-10.11-9.78-32.07-5.7-39.41,5.57-6.5,9.99.82,38.62,1.49,51.31,1.73,32.64.39,69.86-18.61,97.3-1.28.27-2.7-1.57-3.26-2.58-2.6-4.7,1.55-22.13,1.91-28.77,1.17-21.66-.99-77.51-14.6-94.27-7.75-9.55-17.54-8.66-28.35-5.57-12.2,3.49-16.62,8.18-17.85,21.08-1.27,13.36.54,28.19-.14,41.78-.78,15.57-8.15,74.73-18.42,84.38-3.02,2.84-5.01,3.14-5.57-1.48-.87-7.19,1.8-17.49,2.08-24.96.68-18.13.13-38.84-2.16-56.81-1.87-14.71-4.15-34.06-20.15-39.73-25.53-9.06-29.94,20.24-32.48,38.75-7.01,51.04-6.84,106.04-10.13,157.54-.24,3.75-1.38,7.72-1.42,11.55l-8.61.5-.94-2.05c-3.18-48.55-4.67-97.35-9.98-145.71-1.5-13.64-4.28-49.11-15-57.85-6.29-5.12-13.9-3.87-20.91-1.03-13.02,5.28-15.78,19.53-17.81,32.09-3.26,20.21-3.99,44.25-3.2,64.75.29,7.45,2.98,16.62,2.08,23.96-.27,2.23-.54,4.01-3.37,3.3-7.76-2.09-13.96-35.84-15.32-43.59-2.43-13.78-4.58-28.65-5.29-42.61-.67-13.15,3.3-48.38-5.34-57.04Z"/>
  </g>
</svg>